<?xml version="1.0" standalone="no"?>
<!DOCTYPE svg PUBLIC "-//W3C//DTD SVG 20010904//EN"
 "http://www.w3.org/TR/2001/REC-SVG-20010904/DTD/svg10.dtd">
<svg version="1.0" xmlns="http://www.w3.org/2000/svg"
 width="232.000000pt" height="232.000000pt" viewBox="0 0 232.000000 232.000000"
 preserveAspectRatio="xMidYMid meet">
<metadata>
Created by potrace 1.11, written by Peter Selinger 2001-2013
</metadata>
<g transform="translate(0.000000,232.000000) scale(0.100000,-0.100000)"
fill="#000000" stroke="none">
<path d="M1123 2299 c-6 -6 -30 -10 -52 -7 -23 2 -41 0 -41 -3 0 -4 -8 -6 -17
-4 -10 1 -24 -3 -32 -9 -12 -9 -13 -8 -7 2 7 12 4 12 -14 2 -18 -10 -24 -9
-31 1 -7 11 -9 11 -9 -1 0 -11 -11 -15 -39 -15 -22 0 -37 -3 -35 -7 5 -8 -10
-11 -48 -11 -10 0 -18 -4 -18 -9 0 -6 -7 -7 -16 -4 -8 3 -12 2 -9 -4 3 -6 -3
-10 -14 -10 -12 0 -21 -5 -21 -12 0 -9 -3 -9 -12 0 -9 9 -19 6 -44 -13 -18
-14 -40 -25 -48 -25 -9 0 -16 -4 -16 -10 0 -5 -9 -10 -20 -10 -11 0 -23 -7
-26 -15 -4 -8 -10 -12 -15 -9 -5 3 -9 0 -9 -6 0 -7 -7 -10 -15 -6 -14 5 -20
-5 -16 -27 1 -5 -4 -5 -10 -1 -7 4 -18 -1 -26 -12 -8 -10 -16 -18 -18 -16 -3
1 -4 -1 -2 -4 3 -8 -46 -33 -55 -28 -4 3 -5 -3 -1 -12 5 -14 3 -16 -11 -11 -9
4 -15 3 -12 -2 3 -5 -1 -12 -10 -15 -8 -3 -12 -11 -9 -16 4 -6 3 -10 -2 -9
-23 4 -32 -2 -26 -18 4 -10 2 -14 -5 -9 -6 3 -16 -3 -22 -14 -6 -11 -15 -18
-19 -15 -5 2 -8 -3 -7 -13 0 -9 -5 -16 -12 -14 -8 1 -11 -2 -7 -8 3 -5 1 -10
-5 -10 -6 0 -8 -4 -5 -10 3 -5 1 -10 -5 -10 -6 0 -16 -13 -21 -30 -6 -17 -16
-27 -22 -23 -6 4 -8 0 -4 -10 4 -12 1 -17 -10 -17 -13 0 -14 -2 -2 -17 10 -11
10 -14 1 -9 -8 5 -15 -2 -22 -18 -5 -14 -15 -26 -21 -26 -8 0 -8 -4 1 -15 11
-13 10 -14 -6 -8 -17 6 -18 5 -5 -11 12 -15 12 -17 0 -14 -8 2 -13 -3 -12 -9
2 -7 -1 -13 -7 -13 -5 0 -7 -7 -3 -16 3 -9 0 -20 -7 -24 -21 -13 -22 -46 -2
-61 14 -11 15 -11 5 1 -21 23 -15 30 12 18 19 -8 22 -14 13 -20 -10 -6 -10
-10 2 -18 13 -9 12 -10 -4 -8 -10 2 -21 -3 -24 -11 -3 -9 0 -11 9 -7 8 4 6 1
-4 -7 -10 -8 -17 -19 -15 -23 1 -5 -3 -19 -10 -31 -7 -13 -9 -23 -5 -23 4 0 2
-4 -5 -9 -11 -7 -11 -9 1 -14 11 -4 15 0 12 13 -2 12 6 25 22 35 13 9 22 19
19 23 -4 3 4 12 16 20 17 10 18 12 4 7 -12 -3 -5 8 18 29 26 23 33 36 24 39
-9 4 -8 6 3 6 9 1 20 8 23 17 3 8 11 12 17 8 7 -4 9 -3 6 2 -8 13 1 25 44 57
20 15 39 24 43 19 4 -4 6 -2 4 3 -2 6 1 11 5 12 4 1 17 12 27 25 11 13 19 19
20 15 0 -5 14 2 32 14 45 32 99 59 91 45 -3 -6 0 -6 8 2 7 6 21 12 32 12 10 0
16 4 13 9 -4 5 3 7 14 4 13 -3 20 0 20 8 0 11 2 11 10 -1 6 -9 10 -11 10 -3 0
7 7 10 15 7 8 -4 15 -1 15 5 0 6 15 9 35 7 20 -1 35 2 35 8 0 6 4 5 9 -3 7
-11 11 -10 20 5 6 11 11 14 11 9 0 -6 9 -11 19 -11 11 0 17 4 15 8 -3 4 -1 8
5 8 5 0 12 -6 14 -12 4 -9 6 -8 6 2 1 13 3 13 10 1 8 -12 12 -12 25 -2 14 11
16 11 16 -5 0 -16 2 -17 10 -4 7 11 10 11 10 2 0 -10 5 -10 20 -2 16 9 20 8
20 -5 0 -13 4 -14 22 -4 18 10 20 9 14 -6 -5 -15 -4 -16 8 -6 11 9 15 9 19 -1
4 -10 8 -10 16 2 9 13 14 9 13 -10 0 -3 14 -6 31 -7 18 -2 33 -7 35 -13 2 -6
7 -8 12 -5 5 3 14 0 22 -7 7 -7 20 -14 28 -16 8 -2 17 -8 18 -13 2 -5 12 -9
23 -9 10 0 19 -5 19 -11 0 -5 5 -7 10 -4 6 3 13 0 16 -8 3 -9 16 -18 30 -21
13 -4 24 -13 24 -21 0 -8 5 -15 10 -15 15 0 119 -101 126 -122 3 -10 10 -15
16 -12 7 5 9 2 6 -8 -4 -8 2 -20 14 -27 13 -8 18 -19 15 -32 -3 -10 -2 -17 2
-15 4 3 21 -22 38 -54 23 -44 27 -62 19 -71 -8 -9 -8 -10 2 -5 8 5 12 0 12
-13 0 -12 5 -21 12 -21 6 0 8 -3 5 -7 -4 -3 -1 -13 6 -21 10 -13 9 -14 -3 -7
-13 8 -13 6 -2 -8 8 -9 11 -21 7 -27 -3 -5 -1 -10 6 -10 8 0 8 -4 -1 -15 -10
-12 -9 -16 4 -21 11 -4 13 -11 6 -23 -6 -12 -5 -22 2 -29 7 -7 8 -12 2 -12 -7
0 -8 -18 -4 -50 4 -33 3 -50 -4 -50 -6 0 -4 -5 4 -10 8 -5 10 -10 3 -10 -6 0
-9 -9 -6 -20 3 -13 0 -20 -8 -20 -11 0 -11 -2 1 -10 8 -5 10 -10 4 -10 -6 0
-11 -10 -10 -22 1 -13 -2 -25 -5 -28 -4 -3 -9 -19 -11 -35 -2 -17 -10 -35 -18
-42 -13 -11 -13 -12 0 -13 12 0 10 -4 -4 -15 -11 -8 -14 -15 -8 -15 10 0 10
-3 0 -14 -7 -8 -17 -11 -23 -8 -5 3 -7 2 -3 -3 4 -4 2 -15 -5 -23 -9 -12 -9
-14 0 -8 7 4 5 -6 -4 -23 -10 -16 -21 -27 -25 -24 -5 2 -8 1 -7 -4 4 -22 -2
-34 -13 -27 -8 5 -7 0 2 -11 9 -11 10 -16 3 -11 -8 4 -13 2 -13 -4 0 -7 -7
-10 -14 -7 -10 4 -13 1 -9 -9 3 -7 0 -14 -6 -14 -6 0 -11 -7 -11 -16 0 -9 -5
-12 -12 -8 -8 5 -9 2 -5 -10 5 -14 3 -17 -8 -12 -9 3 -15 0 -15 -9 0 -8 -5
-14 -12 -13 -7 2 -12 -4 -13 -12 0 -9 -8 -14 -19 -12 -10 2 -15 -1 -12 -6 3
-5 -2 -16 -11 -23 -14 -12 -16 -12 -8 1 8 13 6 13 -8 1 -9 -7 -15 -17 -12 -21
3 -4 -18 -17 -45 -29 -28 -12 -50 -26 -50 -31 0 -6 -3 -9 -7 -8 -5 0 -15 -1
-23 -4 -8 -4 -23 -9 -33 -12 -10 -3 -15 -11 -11 -17 4 -7 -1 -7 -16 1 -18 10
-21 9 -15 -1 6 -9 3 -11 -8 -6 -10 4 -17 2 -17 -4 0 -7 -11 -9 -25 -7 -13 3
-22 2 -20 -2 3 -5 -2 -11 -11 -14 -10 -4 -13 -2 -8 7 6 9 5 9 -8 0 -8 -7 -18
-10 -21 -6 -4 3 -7 1 -7 -6 0 -9 -5 -9 -20 -1 -14 8 -20 8 -20 0 0 -6 -4 -8
-10 -5 -5 3 -10 0 -10 -7 0 -10 -2 -10 -9 1 -7 11 -9 11 -14 0 -4 -11 -6 -11
-6 -1 -1 10 -6 10 -22 1 -12 -6 -19 -7 -16 -2 3 5 -3 9 -13 9 -10 0 -16 -4
-14 -8 6 -10 -10 -11 -20 -1 -11 11 -45 10 -40 -1 3 -6 -2 -2 -10 8 -10 13
-16 15 -16 7 0 -10 -3 -11 -13 -3 -7 6 -18 7 -26 3 -10 -7 -9 -10 8 -16 11 -3
26 -3 33 1 10 6 11 5 1 -8 -11 -13 -9 -15 15 -14 15 1 33 -5 41 -12 12 -11 15
-11 22 0 7 10 9 10 9 0 0 -10 5 -10 20 -2 14 8 20 8 20 0 0 -7 6 -10 13 -7 6
2 22 0 35 -4 15 -6 22 -5 22 4 0 9 2 9 8 0 5 -8 13 -9 22 -3 9 5 19 5 27 -2
10 -8 13 -7 13 3 0 11 2 11 10 -1 5 -8 10 -10 10 -4 0 6 12 11 28 10 16 0 26
5 25 11 -2 7 3 10 10 8 33 -12 67 -13 61 -3 -5 7 -1 9 9 5 9 -3 19 -2 22 4 4
5 17 7 30 5 14 -3 24 0 22 6 -1 6 11 13 28 15 16 2 35 9 42 15 7 6 13 8 13 4
0 -3 9 2 20 12 12 9 25 18 30 18 6 1 15 2 21 3 5 0 7 5 4 11 -3 6 1 7 9 4 9
-4 18 1 22 10 3 9 10 13 15 10 5 -3 9 0 9 5 0 6 6 11 13 11 7 0 19 9 27 20 10
14 16 16 22 7 6 -9 8 -8 8 3 0 9 10 22 21 30 23 16 25 18 65 68 14 17 30 30
35 27 5 -4 6 2 2 11 -4 11 -3 15 4 11 7 -4 17 6 25 23 7 16 20 30 28 30 13 0
13 1 0 10 -14 9 -7 15 14 11 5 -1 6 7 3 19 -3 11 -1 18 4 14 5 -3 9 0 9 6 0 6
7 18 15 27 8 8 13 19 10 24 -4 5 -2 9 4 9 6 0 7 7 4 17 -4 11 -3 14 5 9 8 -5
14 7 18 33 4 23 11 38 15 35 13 -7 7 19 -6 28 -6 4 -2 8 8 8 10 0 16 4 13 9
-4 5 0 12 6 14 10 4 9 6 -1 6 -11 1 -10 6 5 23 10 12 13 18 5 13 -10 -6 -11
-2 -5 16 4 13 8 38 8 56 0 17 4 30 7 27 3 -2 6 10 5 26 -1 17 -4 30 -8 30 -4
0 -3 11 2 25 7 17 6 25 -1 25 -8 0 -7 5 1 15 8 10 9 15 1 15 -7 0 -8 8 -1 25
5 14 6 25 1 25 -4 0 -7 10 -6 23 1 12 -2 28 -8 35 -6 8 -5 12 3 12 9 0 7 7 -6
22 -12 13 -13 18 -4 13 9 -5 7 1 -5 15 -12 14 -14 20 -5 15 12 -6 12 -5 3 5
-6 7 -9 19 -6 28 4 10 2 13 -5 8 -8 -5 -11 2 -8 23 2 18 -2 36 -10 42 -8 6
-14 18 -14 25 0 8 -5 14 -11 14 -6 0 -8 7 -5 16 5 12 2 15 -10 10 -14 -5 -15
-4 -5 8 9 11 8 15 -4 20 -9 3 -13 10 -10 16 3 5 2 10 -3 10 -5 0 -12 9 -15 21
-3 12 -10 18 -16 15 -6 -4 -8 2 -6 14 3 13 0 18 -7 14 -7 -5 -9 -1 -5 9 3 9 2
16 -2 14 -12 -3 -61 55 -61 73 0 12 -2 13 -9 1 -7 -11 -10 -9 -16 8 -3 11 -12
21 -19 21 -7 0 -19 11 -26 25 -7 13 -17 22 -22 19 -4 -3 -11 2 -14 10 -3 9
-10 13 -15 10 -5 -3 -9 0 -9 5 0 6 -5 11 -10 11 -6 0 -22 12 -36 28 -14 15
-22 20 -18 12 5 -11 2 -10 -13 3 -11 10 -30 19 -41 20 -11 0 -18 5 -15 11 4 5
-1 7 -11 3 -10 -4 -15 -3 -11 3 3 6 3 10 -2 11 -4 0 -17 3 -28 5 -11 3 -29 7
-39 8 -11 1 -22 8 -24 14 -3 9 -9 9 -23 1 -14 -7 -19 -7 -17 2 2 6 -12 13 -31
15 -19 2 -41 10 -50 17 -12 10 -13 9 -6 -3 8 -13 7 -13 -8 -1 -14 11 -17 11
-17 0 0 -9 -3 -10 -8 -3 -10 16 -62 24 -62 10 0 -6 -5 -4 -10 4 -6 10 -10 11
-10 3 0 -9 -7 -10 -27 -2 -19 7 -28 6 -33 -2 -6 -8 -9 -7 -13 2 -4 10 -6 10
-6 2 -1 -9 -8 -10 -27 -3 -14 6 -23 6 -19 1 3 -5 -11 -8 -30 -7 -19 2 -35 0
-35 -5 0 -4 -11 -6 -25 -5 -15 2 -22 -1 -18 -7 4 -6 0 -8 -10 -4 -9 3 -19 2
-22 -4 -4 -5 -11 -7 -16 -4 -5 4 -9 0 -9 -7 0 -9 -3 -9 -10 2 -6 9 -10 11 -10
3 0 -7 -7 -10 -15 -7 -8 4 -15 1 -15 -5 0 -6 -9 -11 -21 -11 -11 0 -18 -4 -15
-9 4 -5 -2 -8 -11 -6 -10 1 -27 -2 -38 -8 -11 -6 -23 -10 -27 -9 -4 1 -10 -7
-13 -18 -4 -11 -12 -17 -20 -13 -8 3 -18 -2 -21 -11 -3 -9 -10 -13 -15 -10 -5
3 -19 -6 -31 -19 -13 -13 -31 -23 -40 -21 -10 1 -21 -3 -25 -8 -4 -7 -1 -8 7
-3 8 5 11 3 8 -6 -3 -8 -11 -13 -17 -12 -6 2 -11 -2 -11 -8 0 -6 -7 -8 -16 -5
-15 6 -15 4 -3 -11 9 -11 10 -14 1 -9 -7 4 -12 1 -12 -9 0 -9 -3 -14 -7 -12
-10 6 -34 -19 -26 -27 4 -3 1 -6 -4 -6 -6 0 -14 6 -17 13 -3 6 -3 2 0 -10 3
-15 -1 -26 -15 -35 -12 -7 -21 -16 -21 -21 0 -4 -9 -17 -20 -29 -11 -12 -20
-28 -20 -35 0 -17 -21 -17 -44 0 -16 12 -17 14 -2 15 9 1 23 3 31 4 8 1 12 5
9 10 -3 5 -9 6 -13 4 -4 -3 -8 1 -8 9 0 8 3 13 6 11 3 -2 12 2 19 10 7 8 10
14 6 14 -4 0 5 11 20 25 15 14 24 30 21 35 -3 6 1 10 10 10 10 0 13 5 9 12 -5
8 -2 9 11 4 15 -5 16 -4 5 9 -11 14 -7 19 13 16 4 0 7 3 7 8 0 12 44 61 54 61
4 0 4 -6 0 -12 -4 -8 -3 -10 2 -5 5 5 9 14 9 20 1 7 6 11 13 10 7 -2 9 4 5 15
-3 9 -3 14 1 10 5 -4 19 5 32 19 13 14 24 23 24 19 0 -4 11 3 25 16 39 37 55
49 55 43 0 -4 7 1 16 10 9 9 22 14 29 11 8 -3 16 2 19 10 3 8 12 14 21 14 8 0
15 4 15 9 0 6 9 8 20 6 11 -2 18 0 15 4 -6 11 23 23 36 15 5 -3 9 0 9 6 0 7 7
10 15 6 8 -3 15 -1 15 4 0 6 9 10 20 10 11 0 20 4 20 9 0 6 9 8 20 6 11 -2 20
-1 20 3 0 4 15 7 33 6 17 0 38 4 44 9 7 5 20 7 28 3 8 -3 15 0 15 7 0 8 4 6
10 -3 8 -12 10 -12 10 -1 0 8 3 11 7 8 3 -4 12 -2 20 4 7 6 13 8 13 3 0 -12
123 -11 132 1 5 6 8 5 8 -3 0 -7 6 -12 13 -11 35 4 68 -2 61 -12 -4 -8 0 -8
15 0 11 7 21 8 21 3 0 -4 8 -8 18 -9 53 -5 68 -9 81 -21 10 -10 16 -10 21 -2
5 8 9 6 14 -5 5 -14 9 -15 21 -5 12 10 15 9 15 -4 0 -10 4 -15 8 -12 5 3 21
-1 35 -9 15 -8 31 -15 35 -17 4 -2 6 -6 5 -10 -2 -4 5 -4 14 -1 10 4 14 2 9
-5 -4 -7 1 -10 14 -7 13 2 20 -1 20 -11 0 -8 3 -13 8 -12 12 3 62 -24 62 -34
0 -4 5 -8 11 -8 7 0 20 -10 30 -22 13 -14 19 -16 19 -7 0 12 2 12 9 -1 6 -8 7
-18 4 -24 -3 -5 -1 -6 6 -2 6 4 14 0 17 -8 3 -9 13 -16 21 -16 8 0 12 -4 9 -8
-3 -5 6 -16 19 -26 14 -10 22 -22 19 -27 -3 -5 3 -6 12 -2 12 4 15 3 10 -5 -4
-7 -1 -12 9 -12 9 0 14 -4 11 -9 -3 -5 8 -24 25 -42 18 -19 28 -38 24 -48 -3
-8 -3 -12 1 -9 10 11 36 -20 28 -33 -4 -7 -3 -9 3 -6 5 3 18 -8 28 -25 11 -19
13 -28 5 -23 -8 5 0 -9 16 -30 16 -22 22 -35 14 -30 -12 7 -13 6 -3 -7 7 -8 9
-19 5 -23 -4 -5 -2 -5 5 -1 6 3 14 2 18 -4 3 -5 1 -10 -6 -10 -8 0 -6 -6 4
-18 13 -15 14 -21 4 -32 -9 -10 -9 -11 1 -6 11 7 16 -6 15 -41 -1 -7 4 -13 9
-13 6 0 8 -7 4 -15 -3 -8 2 -21 10 -30 9 -8 11 -15 6 -15 -5 0 -9 -7 -9 -15 0
-8 5 -15 10 -15 5 0 7 -8 4 -19 -2 -10 0 -26 6 -36 7 -13 6 -16 -2 -11 -6 4
-11 3 -11 -3 0 -5 6 -12 13 -14 9 -4 9 -6 -1 -6 -10 -1 -10 -6 -2 -21 6 -11 8
-25 5 -30 -3 -6 0 -10 7 -10 9 0 10 -3 2 -8 -6 -4 -11 -24 -10 -45 0 -20 -2
-37 -5 -37 -3 0 -4 -14 -1 -30 2 -17 -2 -37 -9 -46 -10 -13 -10 -17 2 -25 11
-7 11 -9 0 -9 -9 0 -12 -8 -9 -25 3 -14 1 -23 -6 -22 -6 1 -10 -12 -10 -30 1
-18 -2 -31 -6 -28 -4 3 -11 -2 -14 -11 -3 -8 -2 -13 3 -9 5 3 0 -14 -12 -37
-12 -24 -21 -46 -22 -50 0 -4 -9 -14 -20 -23 -11 -9 -15 -14 -8 -11 6 4 14 2
18 -4 3 -5 2 -10 -3 -10 -5 0 -18 -17 -27 -37 -10 -21 -27 -46 -39 -56 -11
-10 -15 -16 -9 -12 9 4 11 1 7 -9 -3 -9 -9 -14 -13 -12 -3 2 -12 -2 -19 -10
-7 -8 -10 -14 -5 -14 4 0 -2 -7 -13 -16 -10 -8 -13 -12 -5 -8 9 5 12 3 7 -4
-4 -7 -14 -12 -22 -12 -8 0 -14 -7 -14 -16 0 -9 -5 -12 -12 -8 -8 5 -9 2 -5
-10 5 -14 3 -17 -8 -12 -11 4 -15 -1 -15 -17 0 -18 -2 -19 -10 -7 -8 13 -10
12 -10 -3 0 -10 -4 -15 -10 -12 -5 3 -10 -1 -10 -10 0 -9 -4 -13 -10 -10 -5 3
-10 -1 -10 -10 0 -9 -4 -13 -10 -10 -5 3 -10 2 -10 -2 0 -5 -16 -17 -35 -27
-19 -10 -32 -23 -28 -29 4 -6 -2 -8 -15 -5 -12 3 -21 3 -20 -1 2 -20 -4 -30
-17 -25 -8 4 -15 1 -15 -5 0 -6 -6 -10 -12 -9 -7 2 -12 -2 -11 -9 2 -7 -4 -10
-12 -7 -8 4 -15 1 -15 -5 0 -6 -7 -8 -15 -5 -8 4 -15 2 -15 -4 0 -9 -47 -27
-62 -24 -5 1 -8 -3 -8 -9 0 -5 -4 -7 -10 -4 -5 3 -10 1 -10 -5 0 -6 -4 -8 -10
-5 -5 3 -10 0 -10 -7 0 -9 -3 -9 -10 2 -8 12 -10 12 -10 1 0 -8 -7 -11 -20 -8
-12 3 -24 -1 -30 -11 -5 -10 -10 -12 -10 -7 0 6 -11 10 -24 10 -13 0 -22 -3
-20 -6 2 -4 -3 -10 -12 -13 -10 -4 -13 -2 -8 7 6 9 4 9 -7 1 -8 -6 -34 -12
-57 -13 -24 0 -48 -3 -53 -7 -5 -3 -9 1 -9 8 0 9 -3 9 -10 -2 -5 -8 -10 -10
-10 -3 0 12 -18 12 -39 -1 -8 -5 -17 -3 -23 5 -8 11 -11 11 -15 1 -4 -10 -8
-10 -21 0 -12 10 -14 10 -8 1 4 -7 2 -13 -3 -13 -6 0 -11 6 -11 13 0 8 -4 7
-10 -3 -5 -8 -10 -10 -10 -4 0 5 -20 11 -45 13 -28 1 -45 -2 -45 -9 0 -6 5 -8
10 -5 6 4 18 1 27 -7 14 -11 16 -11 9 2 -5 9 -2 8 7 -2 8 -10 31 -18 54 -20
23 -2 39 -6 36 -11 -2 -4 19 -7 46 -7 28 0 51 -4 51 -8 0 -9 53 -7 69 3 6 3
11 1 11 -6 0 -8 4 -8 15 1 8 7 15 8 15 3 0 -13 43 -11 52 2 5 6 8 5 8 -3 0
-10 5 -10 21 -1 12 6 19 7 15 1 -4 -6 2 -8 14 -5 11 3 17 9 15 13 -3 5 8 5 25
0 16 -5 30 -5 30 0 0 4 8 7 18 6 9 -2 20 2 25 8 5 8 9 7 15 -2 7 -10 11 -10
21 2 7 8 18 13 26 10 7 -3 16 0 20 6 5 8 11 7 23 -2 12 -10 14 -10 8 0 -5 8 0
12 13 12 12 0 21 5 21 10 0 6 11 10 25 10 14 0 25 5 25 11 0 6 9 9 20 6 11 -3
18 -1 14 4 -3 5 4 9 16 9 13 0 19 4 14 12 -4 6 -3 8 3 5 10 -6 102 38 113 54
3 4 18 13 33 18 16 6 26 15 22 20 -3 6 3 8 14 6 14 -3 18 1 14 11 -3 8 -1 14
5 12 5 -2 27 13 48 32 22 19 42 34 46 32 5 -1 8 4 8 12 0 8 5 18 12 22 7 4 8
3 4 -4 -4 -7 -5 -12 -2 -12 2 0 14 16 26 35 12 19 27 32 32 29 6 -4 8 -2 4 4
-3 6 -2 13 4 17 6 4 7 11 4 17 -4 7 -2 8 4 4 13 -8 35 28 24 39 -4 5 -1 5 6 1
6 -4 12 -2 12 4 0 6 6 8 13 4 6 -4 9 -4 5 1 -4 4 -2 17 4 29 7 11 11 24 10 29
-2 6 13 11 29 9 4 -1 5 8 2 18 -3 11 0 20 6 20 6 0 11 7 11 16 0 8 4 13 9 9 6
-3 8 4 6 15 -2 11 3 26 11 35 8 8 17 25 19 37 3 12 10 25 16 29 8 5 8 9 -1 14
-10 6 -9 11 5 22 11 7 15 13 9 13 -5 0 -2 5 6 10 13 9 13 10 0 10 -13 0 -13 2
-1 9 8 5 15 22 16 38 3 39 8 57 20 65 6 5 5 8 -3 8 -10 0 -10 5 -2 20 6 11 8
25 5 30 -3 6 0 10 7 10 9 0 9 3 -2 10 -8 5 -10 10 -4 10 6 0 10 10 9 22 -1 13
2 29 8 35 6 9 6 13 -3 13 -10 0 -10 3 0 15 10 12 10 15 0 15 -9 0 -9 4 1 17
12 15 12 16 -1 8 -13 -8 -13 -7 -1 8 10 13 10 17 1 17 -10 0 -10 3 -1 14 7 8
8 17 3 20 -5 3 -8 26 -8 51 1 25 -3 47 -9 49 -5 3 -4 5 3 5 10 1 10 6 2 22 -7
11 -9 23 -6 26 3 4 0 13 -7 21 -9 13 -9 14 0 8 9 -5 11 -2 7 8 -3 9 -10 14
-14 11 -5 -3 -6 4 -3 15 3 12 0 20 -7 20 -9 0 -9 4 1 17 10 11 10 14 2 9 -9
-5 -13 2 -13 23 0 17 -4 31 -10 31 -5 0 -10 12 -10 26 0 15 -8 33 -17 41 -10
8 -12 12 -6 8 9 -4 11 -1 7 9 -3 9 -10 16 -16 16 -5 0 -6 5 -3 10 3 6 1 10 -5
10 -7 0 -9 8 -4 23 3 12 3 19 -1 15 -10 -9 -34 14 -28 28 2 6 -3 14 -11 17 -9
4 -16 13 -16 22 0 9 -9 25 -20 37 -10 12 -17 26 -13 31 3 6 1 7 -5 3 -7 -4
-16 3 -21 17 -6 14 -20 32 -31 40 -14 9 -19 20 -15 28 5 8 4 10 -3 5 -7 -4
-12 -2 -12 4 0 17 -83 90 -102 90 -6 0 -9 3 -5 6 8 8 -18 34 -33 34 -6 0 -8 5
-4 12 4 6 3 8 -4 4 -6 -3 -22 5 -36 19 -14 14 -30 25 -37 25 -6 0 -20 10 -30
22 -13 14 -19 17 -19 7 -1 -10 -4 -9 -11 4 -6 9 -14 15 -20 12 -5 -4 -9 -3 -9
2 0 9 -61 39 -72 35 -5 -1 -8 3 -8 10 0 6 -3 8 -7 5 -3 -4 -15 1 -26 10 -11
10 -17 12 -13 6 5 -9 2 -11 -8 -7 -9 3 -16 10 -16 14 0 5 -10 6 -22 2 -14 -3
-19 -1 -14 6 5 8 2 10 -8 6 -9 -3 -16 -1 -16 5 0 6 -7 8 -15 5 -8 -4 -15 -1
-15 5 0 6 -7 8 -16 4 -9 -3 -20 0 -25 8 -6 10 -9 10 -9 2 0 -9 -7 -10 -26 -3
-14 6 -30 8 -35 4 -5 -3 -9 -1 -9 3 0 5 -10 9 -22 10 -13 0 -46 2 -74 3 -27 2
-56 0 -64 -5 -10 -6 -12 -4 -7 8 7 20 5 21 -10 6z m-1018 -858 c3 -5 2 -12 -3
-15 -5 -3 -9 1 -9 9 0 17 3 19 12 6z"/>
<path d="M599 1595 c0 -11 -3 -15 -5 -9 -5 11 -69 5 -91 -9 -6 -4 -14 -1 -16
5 -4 10 -6 10 -6 0 -1 -7 -5 -11 -10 -8 -5 3 -12 -6 -16 -21 -5 -20 -1 -31 17
-47 13 -12 17 -16 9 -11 -12 9 -12 7 -1 -12 8 -12 17 -20 21 -17 4 2 13 -4 20
-13 12 -14 12 -16 -1 -8 -9 5 -8 0 4 -13 11 -12 15 -22 11 -22 -4 0 2 -9 14
-19 12 -11 22 -22 22 -25 -3 -20 0 -27 8 -22 5 3 12 -1 15 -10 3 -8 2 -13 -3
-10 -5 4 -7 -3 -4 -14 3 -11 9 -17 14 -14 5 3 9 -7 9 -21 0 -14 3 -24 8 -22 4
3 8 -6 8 -19 1 -13 -3 -24 -10 -24 -8 0 -8 -3 0 -8 17 -12 23 -39 11 -51 -9
-9 -8 -11 7 -5 16 6 17 4 7 -14 -7 -14 -8 -23 -1 -27 5 -3 10 -13 10 -21 0
-10 -5 -12 -12 -8 -8 5 -8 1 1 -10 8 -10 16 -34 17 -54 1 -20 3 -37 4 -37 1 0
3 -11 6 -24 2 -14 10 -31 17 -40 10 -12 9 -13 -3 -7 -9 4 -8 2 2 -7 10 -8 15
-17 11 -20 -3 -4 -1 -7 5 -7 7 0 12 -5 12 -11 0 -5 -6 -7 -12 -4 -7 4 -2 -3
12 -15 14 -12 18 -19 10 -15 -8 4 -4 -2 9 -13 13 -10 21 -24 18 -29 -4 -6 1
-10 10 -9 9 0 22 -8 27 -20 6 -11 16 -19 22 -17 7 2 18 -2 26 -9 7 -7 18 -14
24 -15 55 -10 64 -11 64 0 0 6 7 2 15 -9 8 -11 15 -14 15 -6 0 6 8 12 18 12
26 0 89 33 73 38 -8 3 -6 9 8 19 23 15 28 39 10 45 -7 2 -6 8 4 16 12 10 17
10 23 1 4 -8 3 -9 -4 -5 -14 9 -15 -3 -2 -24 6 -10 4 -21 -8 -35 -14 -17 -14
-18 -1 -7 9 7 24 10 33 6 9 -3 16 -1 16 6 0 6 5 8 12 4 7 -4 8 -3 4 5 -4 6 0
14 8 17 9 3 13 11 9 17 -4 7 0 8 12 3 15 -5 16 -4 5 9 -11 13 -11 16 1 13 8
-2 13 3 12 9 -2 7 3 12 10 10 6 -1 11 6 11 15 -1 10 2 16 6 13 4 -3 14 3 21
12 10 12 10 14 2 9 -18 -10 -16 2 2 20 8 9 15 27 15 40 0 17 4 23 13 18 6 -4
9 -4 5 1 -4 4 -3 14 4 22 9 11 7 12 -8 7 -17 -5 -17 -4 -4 8 18 16 16 133 -2
122 -6 -4 -6 1 1 15 9 16 9 21 0 21 -6 0 -9 7 -5 15 3 8 -2 19 -12 24 -9 5
-16 12 -14 15 7 18 -1 38 -28 68 -17 18 -33 41 -36 50 -3 10 -12 18 -20 18 -8
0 -14 7 -14 15 0 8 -5 15 -11 15 -5 0 -7 5 -3 12 4 6 3 8 -4 4 -6 -3 -19 5
-30 19 -11 13 -22 21 -26 18 -3 -3 -6 -1 -6 6 0 7 -4 9 -10 6 -5 -3 -10 0 -10
8 0 18 -24 28 -48 21 -14 -5 -15 -4 -2 5 10 7 11 11 3 11 -22 0 -28 3 -40 19
-11 14 -12 14 -13 1 -1 -12 -3 -12 -14 2 -8 12 -16 14 -24 8 -7 -6 -10 -7 -7
-4 6 8 -46 36 -53 29 -3 -3 1 -5 8 -5 7 0 11 -3 7 -6 -3 -3 -18 2 -34 13 -30
20 -41 22 -60 10 -7 -5 -13 -4 -13 0 0 5 -8 9 -17 10 -10 0 -38 2 -63 3 -25 2
-48 8 -52 14 -5 7 -8 3 -9 -9z m191 -21 c0 -8 -19 -13 -24 -6 -3 5 1 9 9 9 8
0 15 -2 15 -3z m230 -379 c7 -8 9 -15 5 -15 -5 0 -1 -8 7 -17 9 -10 22 -36 29
-58 7 -22 17 -44 21 -49 4 -5 3 -15 -3 -23 -9 -10 -8 -13 2 -13 11 0 11 -2 -1
-10 -11 -7 -11 -10 -2 -10 9 0 12 -12 9 -40 -2 -25 0 -40 7 -40 8 0 8 -2 0 -8
-6 -4 -10 -19 -8 -34 1 -16 -2 -28 -7 -28 -6 0 -9 16 -8 34 2 19 0 38 -3 42
-4 4 -3 14 1 23 6 10 4 28 -3 46 -11 25 -10 32 3 43 14 12 14 13 -2 8 -15 -5
-17 -2 -12 15 6 17 4 20 -6 13 -11 -6 -11 -5 0 9 12 15 12 17 -4 11 -12 -5
-16 -4 -11 4 3 6 2 14 -4 17 -8 5 -7 12 2 23 11 13 11 14 0 8 -9 -5 -15 -1
-19 13 -3 11 -4 23 -3 27 1 4 -4 11 -12 15 -8 5 -9 9 -2 9 6 0 17 -7 24 -15z"/>
<path d="M435 1560 c-3 -5 -1 -10 4 -10 6 0 11 5 11 10 0 6 -2 10 -4 10 -3 0
-8 -4 -11 -10z"/>
<path d="M1057 723 c9 -3 10 -10 3 -22 -5 -10 -6 -21 -3 -25 3 -3 1 -6 -5 -6
-7 0 -12 -5 -12 -11 0 -5 5 -7 10 -4 6 4 -1 -10 -15 -30 -13 -21 -22 -42 -18
-48 4 -6 0 -8 -10 -4 -9 3 -16 3 -16 -1 3 -19 -3 -33 -24 -56 -13 -14 -27 -23
-30 -19 -4 3 -7 1 -7 -5 0 -11 -70 -58 -82 -54 -5 1 -8 -3 -8 -9 0 -5 -6 -7
-12 -3 -8 5 -7 0 2 -11 9 -11 10 -16 3 -11 -7 4 -13 4 -13 -1 0 -18 17 -33 40
-35 14 -2 28 -7 32 -13 5 -6 8 -5 8 3 0 6 9 12 20 12 11 0 23 7 27 16 3 8 12
13 19 10 7 -3 16 0 20 6 5 7 2 8 -6 3 -9 -5 -11 -4 -6 3 4 7 13 12 21 12 13 0
30 28 26 43 -1 5 3 6 9 2 5 -3 14 5 20 19 5 14 14 26 20 26 6 0 9 4 5 9 -3 5
0 13 6 17 8 4 7 9 -2 15 -12 7 -12 9 0 9 7 0 11 6 7 15 -3 8 -1 15 3 15 10 0
9 19 -2 37 -6 9 -3 11 7 7 9 -3 16 -1 16 5 0 6 -4 11 -8 11 -4 0 -8 9 -9 20
-1 11 2 18 7 15 6 -3 7 1 4 10 -6 16 -36 36 -51 34 -4 0 -2 -3 4 -6z"/>
<path d="M759 113 c-13 -16 -12 -17 4 -4 16 13 21 21 13 21 -2 0 -10 -8 -17
-17z"/>
</g>
</svg>
